<svg id="Layer_1" xmlns="http://www.w3.org/2000/svg" viewBox="0 0 50 50"><style>.st0{fill:#fff}.st1{fill:#3b9bd6}</style><circle class="st0" cx="24.9" cy="24.9" r="23"/><path class="st1" d="M25 0C11.2 0 0 11.2 0 25s11.2 25 25 25 25-11.2 25-25S38.8 0 25 0zm13.3 23.2c1.4 1.4 1.4 3.8 0 5.2L25.6 41.1c-1.4 1.4-3.8 1.4-5.2 0-.3-.3-.6-.7-.7-1.1l-7.2-2.8-2.2-1.3c-.3-.2-.5-.6-.3-1l.5-1.2c.2-.4.6-.6.9-.5h2.5c.1 0 .2 0 .3.1.8.6 4.7 4.1 4.5.9 0-.1.1-.1.1-.1l1.6.6L6.8 19.2s5.7-.5 7.4 1.4l2 2.3 7.9 9.2 5.1-5.1-1.8-1.6 1.8-2.3-2.4-2.1 1.8-2.3-2.4-2.1 1.8-2.3-2.4-2.1 1.8-2.3-2.3-2v-.1l3.6-.7c1.4-.3 2.8.9 3 2.6 0 0 .9 10.5 1.1 13.5l.2-.2c.1-.1.2-.2.4-.3l1.5-6c.7-2.5 3.2-4.1 5.8-3.4l-2.4 9.9c0-.1 0-.1 0 0z"/></svg>