<svg id="Layer_1" xmlns="http://www.w3.org/2000/svg" viewBox="0 0 79.7 23.2"><style>.st0{fill:#36a8e0}.st1{fill:#514d4b}.st2{fill:#1e71b8}.st3{fill:#184c92}</style><path class="st0" d="M21.6 19V8.1h6.2V9h-5.2v4.2h4.9v.8h-4.9v5h-1zm10.3.1c-2.8 0-3.8-1.4-3.8-3.2v-4.7c0-1.9 1-3.2 3.8-3.2s3.8 1.4 3.8 3.2v4.7c0 1.9-1 3.2-3.8 3.2zm2.9-3.2v-4.7c0-1.6-.8-2.4-2.8-2.4-2.1 0-2.8.8-2.8 2.4v4.7c0 1.6.8 2.4 2.8 2.4 2 0 2.8-.9 2.8-2.4zm6.1-1.1h-3.1V19h-1V8.1h3.9c2.2 0 3 1 3 2.5v1.7c0 1.2-.5 2.1-1.8 2.4l2.9 4.3h-1.1l-2.8-4.2zM40.7 9h-2.9v5h2.9c1.4 0 2-.5 2-1.7v-1.7c0-1.2-.7-1.6-2-1.6zm6.9 0h-3.3v-.9H52V9h-3.3v10h-1V9zm5.6 10h-1V8.1h1V19zm4.2.1c-.9 0-2.1-.2-3.1-.5l.2-.8c1 .3 2 .4 2.9.4 1.9 0 2.4-.6 2.4-1.9 0-1.7 0-1.9-2.4-2.4-2.6-.6-2.9-1.1-2.9-3.3 0-1.8.7-2.7 3.4-2.7.9 0 2.1.2 2.8.4l-.1.8c-.8-.2-1.8-.3-2.7-.3-2.2 0-2.5.5-2.5 1.9 0 1.8 0 1.8 2.3 2.4 2.9.7 3 1.1 3 3.2 0 1.8-.6 2.8-3.3 2.8zm4-.1V8.1h6.8v2.2h-4.4v2h4.1v2.2h-4.1v2.4h4.4V19h-6.8zm9.8-6.1L71 19h-2.4l.5-10.9h2.5l2.6 6.9 2.6-6.9h2.5l.4 10.9h-2.4l-.2-6-1.9 4.6H73l-1.8-4.7z"/><path class="st1" d="M21.6 21.9v-.6c0-.4.2-.6.7-.6.2 0 .3 0 .4.1v.3h-.4c-.3 0-.4.1-.4.4v.6c0 .3.1.4.4.4h.4v.3c-.1 0-.3.1-.4.1-.5-.4-.7-.6-.7-1zm2.5.6c-.5 0-.7-.3-.7-.7v-.5c0-.4.2-.7.7-.7.5 0 .7.3.7.7v.5c0 .4-.2.7-.7.7zm0-1.6c-.3 0-.4.1-.4.4v.5c0 .3.1.4.4.4.3 0 .4-.1.4-.4v-.5c0-.2-.1-.4-.4-.4zm2.5 1.6v-1.3c0-.1-.1-.2-.2-.2s-.4.1-.6.2v1.3h-.3v-1.8h.2v.2c.2-.1.5-.2.7-.2.3 0 .4.2.4.4v1.3h-.2zm1.7 0c-.2 0-.4 0-.6-.1v-.2c.2 0 .3.1.5.1.3 0 .3-.1.3-.2 0-.2 0-.2-.4-.3-.4-.1-.5-.2-.5-.6 0-.3.1-.5.6-.5.2 0 .4 0 .5.1v.2c-.1 0-.3-.1-.5-.1-.3 0-.3.1-.3.2 0 .2 0 .2.3.3.5.1.5.2.5.5.2.4.1.6-.4.6zm1.6-1.8V22c0 .1.1.2.2.2s.4-.1.6-.2v-1.3h.3v1.8h-.2v-.2c-.2.1-.5.2-.7.2-.3 0-.4-.2-.4-.4v-1.3h.2zm1.9 1.8V20h.3v2.5h-.3zm2.1-.1c-.1 0-.2.1-.4.1-.3 0-.4-.1-.4-.4V21h-.3v-.3h.3v-.4h.3v.5h.5v.3h-.5v1.1c0 .1 0 .2.2.2h.3zm1.9.1h-.3v-.1c-.2.1-.4.2-.6.2-.3 0-.5-.2-.5-.5 0-.4.2-.5.5-.5h.5v-.3c0-.2-.1-.3-.4-.3-.2 0-.4 0-.5.1v-.2c.2 0 .4-.1.6-.1.5 0 .7.2.7.6v1.1zm-.3-.7h-.4c-.2 0-.3.1-.3.2 0 .2 0 .3.2.3s.3-.1.5-.1v-.4zm2.2.7v-1.3c0-.1-.1-.2-.2-.2s-.4.1-.6.2v1.3h-.3v-1.8h.2v.2c.2-.1.5-.2.7-.2.3 0 .4.2.4.4v1.3h-.2zm2-.1c-.1 0-.2.1-.4.1-.3 0-.4-.1-.4-.4V21h-.3v-.3h.3v-.4h.3v.5h.5v.3h-.5v1.1c0 .1 0 .2.2.2h.3zm3.4-.1c.2 0 .4 0 .6-.1v.2c-.2.1-.4.1-.6.1-.5 0-.7-.2-.7-.6v-.5c0-.4.2-.7.7-.7.5 0 .7.3.7.7v.4h-1v.1c-.1.2 0 .4.3.4zm-.4-.8h.8v-.1c0-.2-.1-.4-.4-.4-.3 0-.4.1-.4.4v.1zm2.8 1v-1.3c0-.1-.1-.2-.2-.2s-.4.1-.6.2v1.3h-.3v-1.8h.2v.2c.2-.1.5-.2.7-.2.3 0 .4.2.4.4v1.3h-.2zm2.5-1.6h-.2c.1.1.1.2.1.3v.1c0 .4-.2.6-.7.6H47c-.1 0-.1.1-.1.2s0 .1.1.1c.2 0 .3 0 .5.1.3 0 .4.2.4.4 0 .4-.1.5-.8.5-.2 0-.4 0-.6-.1v-.2c.2 0 .4.1.6.1.4 0 .5-.1.5-.2s-.1-.2-.3-.2h-.5c-.3 0-.3-.2-.3-.3 0-.1.1-.2.2-.3-.2-.1-.2-.3-.2-.5v-.1c0-.4.2-.6.7-.6h.8v.1zm-.8 0c-.3 0-.4.1-.4.4v.1c0 .3.1.3.4.3s.4-.1.4-.3v-.1c0-.3-.1-.4-.4-.4zm1.5-.5V20h.3v.4h-.3zm0 2.1v-1.8h.3v1.8h-.3zm2.2 0v-1.3c0-.1-.1-.2-.2-.2s-.4.1-.6.2v1.3h-.3v-1.8h.2v.2c.2-.1.5-.2.7-.2.3 0 .4.2.4.4v1.3h-.2zm1.8-.2c.2 0 .4 0 .6-.1v.2c-.2.1-.4.1-.6.1-.5 0-.7-.2-.7-.6v-.5c0-.4.2-.7.7-.7.5 0 .7.3.7.7v.4h-1v.1c-.1.2-.1.4.3.4zm-.4-.8h.7v-.1c0-.2-.1-.4-.4-.4-.3 0-.4.1-.4.4v.1zm2.4.8c.2 0 .4 0 .6-.1v.2c-.2.1-.4.1-.6.1-.5 0-.7-.2-.7-.6v-.5c0-.4.2-.7.7-.7.5 0 .7.3.7.7v.4h-1v.1c-.1.2-.1.4.3.4zm-.4-.8h.7v-.1c0-.2-.1-.4-.4-.4s-.4.1-.4.4v.1zm2.6-.5c-.2.1-.4.2-.5.3v1.2H56v-1.8h.3v.2c.1-.1.3-.2.5-.3l.1.4zm1 1.5c-.2 0-.4 0-.6-.1v-.2c.2 0 .4.1.5.1.3 0 .3-.1.3-.2 0-.2 0-.2-.4-.3-.4-.1-.5-.2-.5-.6 0-.3.1-.5.6-.5.2 0 .4 0 .5.1v.2c-.1 0-.3-.1-.5-.1-.3 0-.3.1-.3.2 0 .2 0 .2.3.3.5.1.5.2.5.5.2.4.1.6-.4.6zm2.3-1h.6v-.6h.3v.6h.6v.3h-.6v.6h-.3v-.6h-.6v-.3zm5.4 1v-1.3c0-.1-.1-.2-.2-.2s-.4.1-.6.2v1.3h-.3v-1.3c0-.1-.1-.2-.2-.2s-.4.1-.6.2v1.3h-.3v-1.8h.2v.2c.2-.1.5-.2.7-.2.2 0 .3.1.3.2.2-.1.5-.2.7-.2.3 0 .4.2.4.4v1.3h-.1zm2.4 0h-.3v-.1c-.2.1-.4.2-.6.2-.3 0-.5-.2-.5-.5 0-.4.2-.5.5-.5h.5v-.3c0-.2-.1-.3-.4-.3-.2 0-.4 0-.5.1v-.2c.2 0 .4-.1.6-.1.5 0 .7.2.7.6v1.1zm-.3-.7h-.4c-.2 0-.3.1-.3.2 0 .2 0 .3.2.3s.3-.1.5-.1v-.4zm2.2.7v-1.3c0-.1-.1-.2-.2-.2s-.4.1-.6.2v1.3h-.3v-1.8h.2v.2c.2-.1.5-.2.7-.2.3 0 .4.2.4.4v1.3h-.2zm2.4 0H72v-.1c-.2.1-.4.2-.6.2-.3 0-.5-.2-.5-.5 0-.4.2-.5.5-.5h.5v-.3c0-.2-.1-.3-.4-.3-.2 0-.4 0-.5.1v-.2c.2 0 .4-.1.6-.1.5 0 .7.2.7.6v1.1zm-.4-.7h-.4c-.2 0-.3.1-.3.2 0 .2 0 .3.2.3s.3-.1.5-.1v-.4zm2.5-.9h-.2c.1.1.1.2.1.3v.1c0 .4-.2.6-.7.6h-.2c-.1 0-.1.1-.1.2s0 .1.1.1c.2 0 .3 0 .5.1.3 0 .4.2.4.4 0 .4-.1.5-.8.5-.2 0-.4 0-.6-.1v-.2c.2 0 .4.1.6.1.4 0 .5-.1.5-.2s-.1-.2-.3-.2h-.5c-.3 0-.3-.2-.3-.3 0-.1.1-.2.2-.3-.2-.1-.2-.3-.2-.5v-.1c0-.4.2-.6.7-.6h.8v.1zm-.8 0c-.3 0-.4.1-.4.4v.1c0 .3.1.3.4.3.3 0 .4-.1.4-.3v-.1c0-.3-.1-.4-.4-.4zm2.1 1.4c.2 0 .4 0 .6-.1v.2c-.2.1-.4.1-.6.1-.5 0-.7-.2-.7-.6v-.5c0-.4.2-.7.7-.7.5 0 .7.3.7.7v.4h-1v.1c-.1.2 0 .4.3.4zm-.4-.8h.8v-.1c0-.2-.1-.4-.4-.4-.3 0-.4.1-.4.4v.1zm2.6-.5c-.2.1-.4.2-.5.3v1.2h-.3v-1.8h.3v.2c.1-.1.3-.2.5-.3v.4zm1.1 1.5c-.2 0-.4 0-.6-.1v-.2c.2 0 .3.1.5.1.3 0 .3-.1.3-.2 0-.2 0-.2-.4-.3-.4-.1-.5-.2-.5-.6 0-.3.1-.5.6-.5.2 0 .4 0 .5.1v.2c-.1 0-.3-.1-.5-.1-.3 0-.3.1-.3.2 0 .2 0 .2.3.3.5.1.5.2.5.5.2.4.1.6-.4.6z"/><path class="st2" d="M14.9 18.9h1.2V4.8l-1.2-1.1zm-2.8 0h1.2V2.3l-1.2-1.1z"/><path class="st3" d="M0 18.9h10.5V0L0 5.8z"/><path class="st2" d="M17.7 6.2v12.7h1.1V7.3z"/></svg>