<svg id="Layer_1" xmlns="http://www.w3.org/2000/svg" viewBox="0 0 200 58.1"><style>.st0{fill:#fff}</style><path class="st0" d="M53.3 46.7V20h15.2v2.1H55.7v10.3h12v2.1h-12v12.2h-2.4zm25.3.4c-6.9 0-9.4-3.4-9.4-8V27.5c0-4.6 2.5-8 9.4-8s9.4 3.4 9.4 8v11.7c0 4.6-2.5 7.9-9.4 7.9zm7-8V27.6c0-3.8-1.8-5.9-7-5.9-5.1 0-7 2.1-7 5.9v11.5c0 3.8 1.9 5.9 7 5.9s7-2.1 7-5.9zm15-2.7H93v10.3h-2.4V20h9.5c5.4 0 7.4 2.5 7.4 6.2v4.1c0 2.9-1.2 5.1-4.3 5.9l7.2 10.6h-2.7l-7.1-10.4zm-.5-14.3H93v12.2h7.2c3.4 0 4.9-1.1 4.9-4.1v-4.1c0-2.9-1.6-4-5-4zm17 0h-8.2V20h18.9v2.1h-8.2v24.7h-2.4V22.1h-.1zm13.8 24.6h-2.4V20h2.4v26.7zm10.4.4c-2.3 0-5.3-.4-7.6-1.3l.4-1.9c2.4.7 4.9 1.1 7.2 1.1 4.6 0 5.8-1.4 5.8-4.8 0-4.1 0-4.6-6-6-6.5-1.5-7.2-2.7-7.2-8 0-4.4 1.6-6.7 8.3-6.7 2.3 0 5.1.4 6.9.9l-.3 2c-2-.4-4.5-.8-6.6-.8-5.3 0-6 1.3-6 4.6 0 4.3.1 4.5 5.8 6 7 1.8 7.4 2.8 7.4 7.8.2 4.5-1.3 7.1-8.1 7.1zm9.9-.4V20H168v5.4h-10.8v4.9h10v5.3h-10v5.8H168v5.4l-16.8-.1zm24.1-14.8l-.4 14.9H169l1.1-26.8h6l6.4 17.1 6.4-17.1h6l1.1 26.8h-5.8l-.2-14.9-4.7 11.4h-5.4l-4.6-11.4zm-122 22v-1.4c0-1 .4-1.6 1.7-1.6.4 0 .8.1 1 .1v.7c-.3-.1-.6-.1-.9-.1-.7 0-1 .2-1 .9v1.4c0 .7.2.9 1 .9.3 0 .6 0 .9-.1l.1.6c-.2.1-.7.1-1 .1-1.5 0-1.8-.6-1.8-1.5zm6.1 1.5c-1.3 0-1.8-.7-1.8-1.6v-1.3c0-.9.5-1.6 1.8-1.6s1.8.7 1.8 1.6v1.3c-.1.9-.6 1.6-1.8 1.6zm0-3.8c-.7 0-1 .3-1 .9v1.3c0 .6.3.9 1 .9s1-.3 1-.9v-1.3c0-.6-.3-.9-1-.9zm6.2 3.7V52c0-.3-.1-.4-.4-.4s-1 .2-1.4.4v3.3H63V51h.6l.1.4c.5-.2 1.2-.5 1.7-.5.7 0 .9.4.9 1.1v3.3h-.7zm4 .1c-.4 0-1-.1-1.4-.2l.1-.6c.4.1.9.2 1.2.2.7 0 .8-.1.8-.6s0-.5-.9-.7c-1.1-.3-1.2-.5-1.2-1.4 0-.8.4-1.2 1.5-1.2.4 0 .9.1 1.2.2l-.1.6c-.4-.1-.8-.1-1.2-.1-.6 0-.7.2-.7.5 0 .5 0 .6.7.7 1.2.3 1.3.5 1.3 1.3.2.9-.1 1.3-1.3 1.3zm4-4.4v3.3c0 .3.1.4.4.4s1-.2 1.4-.4V51h.7v4.3h-.6l.1-.3c-.5.2-1.2.5-1.7.5-.7 0-.9-.4-.9-1.1V51h.6zm4.7 4.3v-6.1l.7-.1v6.2h-.7zm5.1 0c-.3.1-.6.2-.9.2-.7 0-1.1-.3-1.1-1v-2.8h-.8V51h.8v-1l.7-.1V51h1.2l-.1.6H82v2.7c0 .3 0 .5.4.5.2 0 .4 0 .7-.1l.3.6zm4.8 0h-.6V55c-.4.3-.9.4-1.4.4-.8 0-1.1-.5-1.1-1.2 0-.9.5-1.2 1.3-1.2h1.2v-.7c0-.5-.2-.7-.9-.7-.4 0-1 .1-1.3.1l-.1-.6c.4-.1 1-.2 1.4-.2 1.2 0 1.6.5 1.6 1.4l-.1 3zm-.8-1.7h-1.1c-.5 0-.6.1-.6.6 0 .4.1.6.6.6.4 0 .8-.1 1.1-.4v-.8zm5.3 1.7V52c0-.3-.1-.4-.4-.4s-1 .2-1.4.4v3.3h-.7V51h.6l.1.4c.5-.2 1.2-.5 1.7-.5.7 0 .9.4.9 1.1v3.3h-.8zm5.1 0c-.3.1-.6.2-.9.2-.7 0-1.1-.3-1.1-1v-2.8H95V51h.8v-1l.7-.1V51h1.2l-.1.6h-1.2v2.7c0 .3 0 .5.4.5.2 0 .4 0 .7-.1l.3.6zm8.4-.5c.4 0 .9-.1 1.4-.2l.1.6c-.4.2-1 .2-1.5.2-1.3 0-1.7-.6-1.7-1.6v-1.3c0-.9.4-1.6 1.7-1.6 1.3 0 1.6.7 1.6 1.6v.9h-2.6v.4c-.1.7.1 1 1 1zm-1.1-2h1.9v-.4c0-.6-.2-.9-.9-.9s-.9.3-.9.9l-.1.4zm7 2.5V52c0-.3-.1-.4-.4-.4s-1 .2-1.4.4v3.3h-.7V51h.6l.1.4c.5-.2 1.2-.5 1.7-.5.7 0 .9.4.9 1.1v3.3h-.8zm6.2-3.8l-.5.1c.2.2.2.5.2.9v.2c0 .9-.6 1.5-1.7 1.5h-.4c-.1.1-.3.3-.3.5s.1.2.3.2c.4 0 .7.1 1.2.1.8.1 1.1.4 1.1 1 0 .9-.3 1.3-1.9 1.3-.4 0-1.1-.1-1.6-.2l.1-.6c.4.1 1 .2 1.4.2 1.1 0 1.2-.2 1.2-.6 0-.4-.1-.4-.6-.5-.5 0-.6-.1-1.1-.1-.6-.1-.8-.4-.8-.8 0-.3.2-.6.4-.8-.4-.2-.6-.7-.6-1.2v-.2c0-.9.5-1.5 1.7-1.5.2 0 .5 0 .7.1h1.2v.4zm-2 0c-.7 0-1 .2-1 .9v.2c0 .7.3.9 1 .9s1-.3 1-.9v-.2c0-.6-.3-.9-1-.9zm3.6-1.2v-1.1h.7v1.1h-.7zm0 5V51h.7v4.3h-.7zm5.5 0V52c0-.3-.1-.4-.4-.4s-1 .2-1.4.4v3.3h-.7V51h.6l.1.4c.5-.2 1.2-.5 1.7-.5.7 0 .9.4.9 1.1v3.3h-.8zm4.3-.5c.4 0 .9-.1 1.4-.2l.1.6c-.4.2-1 .2-1.5.2-1.3 0-1.7-.6-1.7-1.6v-1.3c0-.9.4-1.6 1.7-1.6s1.6.7 1.6 1.6v.9h-2.6v.4c0 .7.2 1 1 1zm-1-2h1.8v-.4c0-.6-.2-.9-.9-.9s-.9.3-.9.9v.4zm5.9 2c.4 0 .9-.1 1.4-.2l.1.6c-.4.2-1 .2-1.5.2-1.3 0-1.7-.6-1.7-1.6v-1.3c0-.9.4-1.6 1.7-1.6s1.6.7 1.6 1.6v.9h-2.6v.4c0 .7.2 1 1 1zm-1-2h1.9v-.4c0-.6-.2-.9-.9-.9s-.9.3-.9.9v.4h-.1zm6.4-1.2c-.4.2-.9.5-1.2.7v3h-.8V51h.6v.6c.3-.2.8-.5 1.2-.7l.2.7zm2.6 3.8c-.4 0-1-.1-1.4-.2l.1-.6c.4.1.9.2 1.2.2.7 0 .8-.1.8-.6s0-.5-.9-.7c-1.1-.3-1.2-.5-1.2-1.4 0-.8.4-1.2 1.5-1.2.4 0 .9.1 1.2.2l-.1.6c-.4-.1-.8-.1-1.2-.1-.6 0-.7.2-.7.5 0 .5 0 .6.7.7 1.2.3 1.3.5 1.3 1.3.2.9-.1 1.3-1.3 1.3zm5.7-2.5h1.5v-1.5h.7v1.5h1.5v.6h-1.5V55h-.7v-1.5h-1.5v-.6zm13.3 2.4V52c0-.3-.1-.4-.4-.4-.4 0-1 .2-1.4.4v3.3h-.8V52c0-.3-.1-.4-.4-.4-.3 0-1 .2-1.4.4v3.3h-.7V51h.6l.1.4c.5-.2 1.2-.5 1.7-.5.4 0 .7.2.8.5.5-.3 1.2-.5 1.8-.5.7 0 .9.4.9 1.1v3.3h-.8zm5.9 0h-.6V55c-.4.3-.9.4-1.4.4-.8 0-1.1-.5-1.1-1.2 0-.9.5-1.2 1.3-1.2h1.2v-.7c0-.5-.2-.7-.9-.7-.4 0-1 .1-1.3.1l-.1-.6c.4-.1 1-.2 1.4-.2 1.2 0 1.6.5 1.6 1.4l-.1 3zm-.8-1.7h-1.1c-.5 0-.6.1-.6.6 0 .4.1.6.6.6.4 0 .8-.1 1.1-.4v-.8zm5.4 1.7V52c0-.3-.1-.4-.4-.4-.3 0-1 .2-1.4.4v3.3h-.7V51h.6l.1.4c.5-.2 1.2-.5 1.7-.5.7 0 .9.4.9 1.1v3.3h-.8zm5.8 0h-.6V55c-.4.3-.9.4-1.4.4-.8 0-1.1-.5-1.1-1.2 0-.9.5-1.2 1.3-1.2h1.2v-.7c0-.5-.2-.7-.9-.7-.4 0-1 .1-1.3.1l-.1-.6c.4-.1 1-.2 1.4-.2 1.2 0 1.6.5 1.6 1.4l-.1 3zm-.7-1.7h-1.1c-.5 0-.6.1-.6.6 0 .4.1.6.6.6.4 0 .8-.1 1.1-.4v-.8zm6-2.1l-.5.1c.2.2.2.5.2.9v.2c0 .9-.6 1.5-1.7 1.5h-.4c-.1.1-.3.3-.3.5s.1.2.3.2c.5 0 .7.1 1.2.1.8.1 1.1.4 1.1 1 0 .9-.3 1.3-1.9 1.3-.4 0-1.1-.1-1.6-.2l.1-.6c.5.1 1 .2 1.4.2 1.1 0 1.2-.2 1.2-.6 0-.4-.1-.4-.6-.5-.5 0-.6-.1-1.1-.1-.6-.1-.8-.4-.8-.8 0-.3.2-.6.4-.8-.4-.2-.6-.7-.6-1.2v-.2c0-.9.5-1.5 1.7-1.5.2 0 .5 0 .7.1h1.2v.4zm-1.9 0c-.7 0-1 .2-1 .9v.2c0 .7.3.9 1 .9s1-.3 1-.9v-.2c-.1-.6-.3-.9-1-.9zm5.1 3.3c.4 0 .9-.1 1.4-.2l.1.6c-.4.2-1 .2-1.5.2-1.3 0-1.7-.6-1.7-1.6v-1.3c0-.9.4-1.6 1.7-1.6s1.6.7 1.6 1.6v.9h-2.6v.4c0 .7.2 1 1 1zm-1-2h1.9v-.4c0-.6-.2-.9-.9-.9s-.9.3-.9.9v.4h-.1zm6.4-1.2c-.4.2-.9.5-1.2.7v3h-.7V51h.6v.6c.3-.2.8-.5 1.2-.7l.1.7zm2.6 3.8c-.4 0-1-.1-1.4-.2l.1-.6c.4.1.9.2 1.2.2.7 0 .8-.1.8-.6s0-.5-.9-.7c-1.1-.3-1.2-.5-1.2-1.4 0-.8.4-1.2 1.5-1.2.4 0 .9.1 1.2.2l-.1.6c-.4-.1-.8-.1-1.2-.1-.6 0-.7.2-.7.5 0 .5 0 .6.7.7 1.2.3 1.3.5 1.3 1.3.2.9-.1 1.3-1.3 1.3zm-157.7-9h3V11.8l-3-2.7zm-6.9 0h3V5.7l-3-2.7zM0 46.4h25.9V0L0 14.2zm43.6-31.1v31.1h2.8V18z"/></svg>