<svg xmlns="http://www.w3.org/2000/svg" viewBox="0 0 50 52.8"><path d="M28.9 25.2l-3.4 2.9c-.3.3-.8.3-1.1 0L21 25.2l-8.9 10.2-.1.2.2.1c.2.1.4.1.6.1h24.3c.2 0 .4-.1.6-.1l.2-.1L29 25.3l-.1-.1z"/><path d="M25 26.4l12.9-11-.3-.1h-.1c-.1 0-.2-.1-.3-.1H12.8c-.1 0-.2 0-.3.1h-.1l-.3.1 12.9 11zm-14-9.8l-.2-.1-.1.2c-.1.2-.1.4-.1.6v16.2c0 .1 0 .2.1.3v.1l.1.3L19.7 24 11 16.6zm28.1-.1l-8.9 7.6 8.9 10.2.1-.3v-.1c0-.1.1-.2.1-.3V17.4c0-.2-.1-.4-.1-.6l-.1-.3z"/><path d="M25 0C11.2 0 0 11.8 0 26.4s11.2 26.4 25 26.4S50 41 50 26.4 38.8 0 25 0zm16 33.6c0 2.2-1.8 3.9-3.9 3.9H12.8c-2.2 0-3.9-1.8-3.9-3.9V17.4c0-2.2 1.8-3.9 3.9-3.9h24.3c2.2 0 3.9 1.8 3.9 3.9v16.2z"/></svg>