<svg id="Layer_1" xmlns="http://www.w3.org/2000/svg" viewBox="0 0 420 420"><style>.st0{fill:#3b9ad5}</style><path class="st0" d="M210 0C94 0 0 94 0 210s94 210 210 210 210-94 210-210S326 0 210 0zm106 329.2H98.3c-3.9 0-7-3.1-7-7 0-60.4 38.9-78.6 64.6-90.7 8.9-4.2 16.8-7.9 20.7-12l.5-2.7C155 203 141 175.4 141 144.8c0-44.5 29.7-80.8 66.2-80.8s66.2 36.2 66.2 80.8c0 30.3-13.8 57.8-35.6 71.6l.7 3.8c4.1 3.9 11.5 7.3 19.9 11.3 25.7 12.1 64.6 30.3 64.6 90.7 0 3.8-3.2 7-7 7z"/><path class="st0" d="M252.4 244.1c-10.8-5-20-9.4-25.7-16-.8-.9-1.3-2.1-1.6-3.3l-2-10.7c-.6-3 .9-6.1 3.6-7.5 19.8-10.3 32.6-34.6 32.6-61.9 0-36.8-23.4-66.8-52.2-66.8-28.8 0-52.2 29.9-52.2 66.8 0 27.5 13 51.9 33.1 62.1 2.8 1.4 4.3 4.5 3.7 7.5l-1.8 9.4c-.2 1-.6 2-1.3 2.9-5.5 7.4-15.4 12.1-26.9 17.4-24 11.3-53.6 25.2-56.3 71h203.3c-2.6-45.7-32.3-59.6-56.3-70.9z"/></svg>