<svg xmlns="http://www.w3.org/2000/svg" viewBox="0 0 50 50"><path d="M25 0C11.2 0 0 11.2 0 25s11.2 25 25 25 25-11.2 25-25S38.8 0 25 0zm9.6 34.6c0 3.1-2.6 5.6-5.9 5.6h-7.5c-3.2 0-5.9-2.5-5.9-5.6V14.8c0-3.1 2.6-5.6 5.9-5.6h7.5c3.2 0 5.9 2.5 5.9 5.6v19.8z"/><path d="M17.3 34.6c0 2.1 1.8 3.7 4 3.7h7.5c2.2 0 4-1.7 4-3.7v-1.2H17.3v1.2zm5.7-.1h4.2c.7 0 1.2.5 1.2 1.1 0 .6-.5 1.1-1.2 1.1H23c-.7 0-1.2-.5-1.2-1.1 0-.6.5-1.1 1.2-1.1zm-5.9-17.9h15.7v15H17.1zm11.7-5.7h-7.5c-2.2 0-4.1 1.7-4.1 3.8v.1H33v-.1c-.2-2.1-2-3.8-4.2-3.8zm-3.2 3c-.3.3-.9.3-1.2 0-.2-.2-.3-.4-.3-.6 0-.2.1-.4.3-.6.3-.3.9-.3 1.2 0 .2.2.3.4.3.6 0 .2-.1.4-.3.6z"/></svg>