<svg xmlns="http://www.w3.org/2000/svg" viewBox="0 0 50 52.8"><path d="M24.7 11.3c-5.3 0-9.6 4.5-9.6 10 0 2.4 1.7 6.7 4.6 11.6 2.1 3.6 4 6 5 7.1 1.1-1.2 3-3.8 5-7.2 2.9-4.9 4.6-9.2 4.6-11.6 0-5.4-4.3-9.9-9.6-9.9zm0 15.7c-2.7 0-5-2.2-5-5s2.2-5 5-5c2.7 0 5 2.2 5 5s-2.3 5-5 5z"/><circle cx="24.7" cy="22" r="3.2"/><path d="M25 0C11.2 0 0 11.8 0 26.4s11.2 26.4 25 26.4S50 41 50 26.4 38.8 0 25 0zm6.3 33.9c-2.4 4.1-4.9 7.3-6 8.3l-.6.5-.6-.5c-1.1-.9-3.5-4.1-6-8.3-3.1-5.3-4.9-9.8-4.9-12.6 0-6.6 5.2-12 11.5-12s11.5 5.4 11.5 12c0 2.8-1.7 7.2-4.9 12.6z"/></svg>