<svg id="Layer_1" xmlns="http://www.w3.org/2000/svg" viewBox="0 0 50 50"><style>.st0{fill:#fff}.st1{fill:#3b9bd6}</style><circle class="st0" cx="24.9" cy="24.6" r="22.4"/><circle class="st1" cx="33.7" cy="31.7" r="4.5"/><path class="st1" d="M25 0C11.2 0 0 11.2 0 25s11.2 25 25 25 25-11.2 25-25S38.8 0 25 0zm-2.2 29.4l-1.5-2.3c-.7.1-1.4.1-2.1 0l-1.6 2.3c-.3.4-.9.6-1.3.4l-1.4-.6c-.5-.2-.7-.7-.6-1.2l.6-2.7c-.5-.4-1-.9-1.5-1.5l-2.7.5c-.5.1-1-.2-1.2-.7L9 22.2c-.2-.5 0-1 .4-1.3l2.3-1.5c-.1-.7-.1-1.4 0-2.1l-2.3-1.6c-.4-.4-.6-.9-.4-1.4l.6-1.4c.2-.5.7-.7 1.2-.6l2.7.6c.4-.5.9-1 1.5-1.5l-.5-2.7c-.1-.5.2-1 .7-1.2l1.4-.5c.5-.2 1 0 1.3.4l1.5 2.3c.7-.1 1.4-.1 2.1 0l1.6-2.3c.3-.4.9-.6 1.4-.4l1.4.6c.5.2.7.7.6 1.2l-.6 2.7c.5.4 1 .9 1.5 1.5l2.7-.5c.5-.1 1 .2 1.2.7l.5 1.4c.2.5 0 1-.4 1.3l-2.3 1.5c.1.7.1 1.4 0 2.1l2.3 1.6c.4.3.6.9.4 1.3l-.6 1.4c-.2.5-.7.7-1.2.6l-2.7-.6c-.4.5-.9 1-1.5 1.5l.5 2.7c.1.5-.2 1-.7 1.2l-1.4.5c-.6.3-1.1.2-1.4-.3zm19.3 3.7l-2 .4c-.1.5-.3 1-.6 1.4l1.2 1.7c.2.3.2.8-.1 1l-.8.8c-.3.3-.7.3-1 .1l-1.7-1.2c-.5.3-.9.5-1.4.6l-.4 2c-.1.4-.4.7-.8.7h-1.1c-.4 0-.7-.3-.8-.7l-.4-2c-.5-.1-1-.3-1.4-.6l-1.7 1.2c-.3.2-.8.2-1-.1l-.8-.8c-.3-.3-.3-.7-.1-1l1.2-1.7c-.3-.5-.5-.9-.6-1.4l-2-.4c-.4-.1-.7-.4-.7-.8v-1.1c0-.4.3-.7.7-.8l2-.4c.1-.5.3-1 .6-1.4l-1.2-1.7c-.2-.3-.2-.8.1-1l.8-.8c.3-.3.7-.3 1-.1l1.7 1.2c.5-.3.9-.5 1.4-.6l.4-2c.1-.4.4-.7.8-.7h1.1c.4 0 .7.3.8.7l.4 2c.5.1 1 .3 1.4.6l1.7-1.2c.3-.2.8-.2 1 .1l.8.8c.3.3.3.7.1 1l-1.2 1.7c.3.5.5.9.6 1.4l2 .4c.4.1.7.4.7.8v1.1c-.1.4-.3.7-.7.8z"/><ellipse transform="rotate(-21.674 20.38 18.38)" class="st1" cx="20.4" cy="18.4" rx="5.9" ry="5.9"/></svg>