<?xml version="1.0" encoding="utf-8"?>
<!-- Generator: Adobe Illustrator 21.1.0, SVG Export Plug-In . SVG Version: 6.00 Build 0)  -->
<svg version="1.1" id="Layer_1" xmlns="http://www.w3.org/2000/svg" xmlns:xlink="http://www.w3.org/1999/xlink" x="0px" y="0px"
	 viewBox="0 0 50 50" style="enable-background:new 0 0 50 50;" xml:space="preserve">
<g>
	<path d="M25,0C11.2,0,0,11.2,0,25c0,13.8,11.2,25,25,25c13.8,0,25-11.2,25-25C50,11.2,38.8,0,25,0z M34.6,34.6
		c0,3.1-2.6,5.6-5.9,5.6h-7.5c-3.2,0-5.9-2.5-5.9-5.6V14.8c0-3.1,2.6-5.6,5.9-5.6h7.5c3.2,0,5.9,2.5,5.9,5.6V34.6z"/>
	<path d="M17.3,34.6c0,2.1,1.8,3.7,4,3.7h7.5c2.2,0,4-1.7,4-3.7v-1.2H17.3V34.6z M23,34.5h4.2c0.7,0,1.2,0.5,1.2,1.1
		c0,0.6-0.5,1.1-1.2,1.1H23c-0.7,0-1.2-0.5-1.2-1.1C21.8,35,22.3,34.5,23,34.5z"/>
	<rect x="17.1" y="16.6" width="15.7" height="15"/>
	<path d="M28.8,10.9h-7.5c-2.2,0-4.1,1.7-4.1,3.8l0,0.1h15.8l0-0.1C32.8,12.6,31,10.9,28.8,10.9z M25.6,13.9c-0.3,0.3-0.9,0.3-1.2,0
		c-0.2-0.2-0.3-0.4-0.3-0.6c0-0.2,0.1-0.4,0.3-0.6c0.3-0.3,0.9-0.3,1.2,0c0.2,0.2,0.3,0.4,0.3,0.6C25.9,13.5,25.8,13.7,25.6,13.9z"
		/>
</g>
</svg>
