<?xml version="1.0" encoding="utf-8"?>
<!-- Generator: Adobe Illustrator 21.1.0, SVG Export Plug-In . SVG Version: 6.00 Build 0)  -->
<svg version="1.1" id="Layer_1" xmlns="http://www.w3.org/2000/svg" xmlns:xlink="http://www.w3.org/1999/xlink" x="0px" y="0px"
	 viewBox="0 0 50 50" style="enable-background:new 0 0 50 50;" xml:space="preserve">
<style type="text/css">
	.st0{fill:#FFFFFF;}
	.st1{fill:#3B9BD6;}
</style>
<circle class="st0" cx="24.9" cy="24.9" r="23"/>
<g>
	<g>
		<path class="st1" d="M25,0C11.2,0,0,11.2,0,25s11.2,25,25,25s25-11.2,25-25S38.8,0,25,0z M38.3,23.2c1.4,1.4,1.4,3.8,0,5.2
			L25.6,41.1c-1.4,1.4-3.8,1.4-5.2,0c-0.3-0.3-0.6-0.7-0.7-1.1l0,0l-7.2-2.8l-2.2-1.3c-0.3-0.2-0.5-0.6-0.3-1l0.5-1.2
			c0.2-0.4,0.6-0.6,0.9-0.5l2.5,0c0.1,0,0.2,0,0.3,0.1c0.8,0.6,4.7,4.1,4.5,0.9c0-0.1,0.1-0.1,0.1-0.1l1.6,0.6L6.8,19.2
			c0,0,5.7-0.5,7.4,1.4l2,2.3l7.9,9.2l5.1-5.1l0,0l-1.8-1.6l1.8-2.3L26.8,21l1.8-2.3l-2.4-2.1l1.8-2.3l-2.4-2.1l1.8-2.3l-2.3-2
			c0,0,0-0.1,0-0.1l3.6-0.7c1.4-0.3,2.8,0.9,3,2.6c0,0,0.9,10.5,1.1,13.5l0.2-0.2c0.1-0.1,0.2-0.2,0.4-0.3l0,0l1.5-6
			c0.7-2.5,3.2-4.1,5.8-3.4L38.3,23.2C38.3,23.1,38.3,23.1,38.3,23.2z"/>
	</g>
</g>
</svg>
