<?xml version="1.0" encoding="utf-8"?>
<!-- Generator: Adobe Illustrator 21.1.0, SVG Export Plug-In . SVG Version: 6.00 Build 0)  -->
<svg version="1.1" id="Layer_1" xmlns="http://www.w3.org/2000/svg" xmlns:xlink="http://www.w3.org/1999/xlink" x="0px" y="0px"
	 viewBox="0 0 79.7 23.2" style="enable-background:new 0 0 79.7 23.2;" xml:space="preserve">
<style type="text/css">
	.st0{fill:#36A8E0;}
	.st1{fill:#514D4B;}
	.st2{fill:#1E71B8;}
	.st3{fill:#184C92;}
</style>
<g>
	<path class="st0" d="M21.6,19V8.1h6.2V9h-5.2v4.2h4.9V14h-4.9v5H21.6z"/>
	<path class="st0" d="M31.9,19.1c-2.8,0-3.8-1.4-3.8-3.2v-4.7c0-1.9,1-3.2,3.8-3.2c2.8,0,3.8,1.4,3.8,3.2v4.7
		C35.7,17.8,34.7,19.1,31.9,19.1z M34.8,15.9v-4.7c0-1.6-0.8-2.4-2.8-2.4c-2.1,0-2.8,0.8-2.8,2.4v4.7c0,1.6,0.8,2.4,2.8,2.4
		C34,18.3,34.8,17.4,34.8,15.9z"/>
	<path class="st0" d="M40.9,14.8h-0.2h-2.9V19h-1V8.1h3.9c2.2,0,3,1,3,2.5v1.7c0,1.2-0.5,2.1-1.8,2.4l2.9,4.3h-1.1L40.9,14.8z
		 M40.7,9h-2.9v5h2.9c1.4,0,2-0.5,2-1.7v-1.7C42.7,9.4,42,9,40.7,9z"/>
	<path class="st0" d="M47.6,9h-3.3V8.1h7.7V9h-3.3v10h-1V9z"/>
	<path class="st0" d="M53.2,19h-1V8.1h1V19z"/>
	<path class="st0" d="M57.4,19.1c-0.9,0-2.1-0.2-3.1-0.5l0.2-0.8c1,0.3,2,0.4,2.9,0.4c1.9,0,2.4-0.6,2.4-1.9c0-1.7,0-1.9-2.4-2.4
		c-2.6-0.6-2.9-1.1-2.9-3.3c0-1.8,0.7-2.7,3.4-2.7c0.9,0,2.1,0.2,2.8,0.4l-0.1,0.8c-0.8-0.2-1.8-0.3-2.7-0.3c-2.2,0-2.5,0.5-2.5,1.9
		c0,1.8,0,1.8,2.3,2.4c2.9,0.7,3,1.1,3,3.2C60.7,18.1,60.1,19.1,57.4,19.1z"/>
	<path class="st0" d="M61.4,19V8.1h6.8v2.2h-4.4v2h4.1v2.2h-4.1v2.4h4.4V19H61.4z"/>
	<path class="st0" d="M71.2,12.9L71,19h-2.4l0.5-10.9h2.5l2.6,6.9l2.6-6.9h2.5L79.7,19h-2.4l-0.2-6l-1.9,4.6h-2.2L71.2,12.9z"/>
	<g>
		<path class="st1" d="M21.6,21.9v-0.6c0-0.4,0.2-0.6,0.7-0.6c0.2,0,0.3,0,0.4,0.1l0,0.3c-0.1,0-0.3,0-0.4,0c-0.3,0-0.4,0.1-0.4,0.4
			v0.6c0,0.3,0.1,0.4,0.4,0.4c0.1,0,0.2,0,0.4,0l0,0.3c-0.1,0-0.3,0.1-0.4,0.1C21.8,22.5,21.6,22.3,21.6,21.9z"/>
		<path class="st1" d="M24.1,22.5c-0.5,0-0.7-0.3-0.7-0.7v-0.5c0-0.4,0.2-0.7,0.7-0.7c0.5,0,0.7,0.3,0.7,0.7v0.5
			C24.8,22.2,24.6,22.5,24.1,22.5z M24.1,20.9c-0.3,0-0.4,0.1-0.4,0.4v0.5c0,0.3,0.1,0.4,0.4,0.4c0.3,0,0.4-0.1,0.4-0.4v-0.5
			C24.5,21.1,24.4,20.9,24.1,20.9z"/>
		<path class="st1" d="M26.6,22.5v-1.3c0-0.1-0.1-0.2-0.2-0.2c-0.1,0-0.4,0.1-0.6,0.2v1.3h-0.3v-1.8h0.2l0,0.2
			c0.2-0.1,0.5-0.2,0.7-0.2c0.3,0,0.4,0.2,0.4,0.4v1.3H26.6z"/>
		<path class="st1" d="M28.3,22.5c-0.2,0-0.4,0-0.6-0.1l0-0.2c0.2,0,0.3,0.1,0.5,0.1c0.3,0,0.3-0.1,0.3-0.2c0-0.2,0-0.2-0.4-0.3
			c-0.4-0.1-0.5-0.2-0.5-0.6c0-0.3,0.1-0.5,0.6-0.5c0.2,0,0.4,0,0.5,0.1l0,0.2c-0.1,0-0.3-0.1-0.5-0.1c-0.3,0-0.3,0.1-0.3,0.2
			c0,0.2,0,0.2,0.3,0.3c0.5,0.1,0.5,0.2,0.5,0.5C28.9,22.3,28.8,22.5,28.3,22.5z"/>
		<path class="st1" d="M29.9,20.7v1.3c0,0.1,0.1,0.2,0.2,0.2c0.1,0,0.4-0.1,0.6-0.2v-1.3H31v1.8h-0.2l0-0.2
			c-0.2,0.1-0.5,0.2-0.7,0.2c-0.3,0-0.4-0.2-0.4-0.4v-1.3H29.9z"/>
		<path class="st1" d="M31.8,22.5V20l0.3,0v2.5H31.8z"/>
		<path class="st1" d="M33.9,22.4c-0.1,0-0.2,0.1-0.4,0.1c-0.3,0-0.4-0.1-0.4-0.4V21h-0.3v-0.3h0.3v-0.4l0.3,0v0.5h0.5l0,0.3h-0.5
			v1.1c0,0.1,0,0.2,0.2,0.2c0.1,0,0.2,0,0.3,0L33.9,22.4z"/>
		<path class="st1" d="M35.8,22.5h-0.3l0-0.1c-0.2,0.1-0.4,0.2-0.6,0.2c-0.3,0-0.5-0.2-0.5-0.5c0-0.4,0.2-0.5,0.5-0.5h0.5v-0.3
			c0-0.2-0.1-0.3-0.4-0.3c-0.2,0-0.4,0-0.5,0.1l0-0.2c0.2,0,0.4-0.1,0.6-0.1c0.5,0,0.7,0.2,0.7,0.6V22.5z M35.5,21.8h-0.4
			c-0.2,0-0.3,0.1-0.3,0.2c0,0.2,0,0.3,0.2,0.3c0.2,0,0.3-0.1,0.5-0.1V21.8z"/>
		<path class="st1" d="M37.7,22.5v-1.3c0-0.1-0.1-0.2-0.2-0.2c-0.1,0-0.4,0.1-0.6,0.2v1.3h-0.3v-1.8h0.2l0,0.2
			c0.2-0.1,0.5-0.2,0.7-0.2c0.3,0,0.4,0.2,0.4,0.4v1.3H37.7z"/>
		<path class="st1" d="M39.7,22.4c-0.1,0-0.2,0.1-0.4,0.1c-0.3,0-0.4-0.1-0.4-0.4V21h-0.3v-0.3h0.3v-0.4l0.3,0v0.5h0.5l0,0.3h-0.5
			v1.1c0,0.1,0,0.2,0.2,0.2c0.1,0,0.2,0,0.3,0L39.7,22.4z"/>
		<path class="st1" d="M43.1,22.3c0.2,0,0.4,0,0.6-0.1l0,0.2c-0.2,0.1-0.4,0.1-0.6,0.1c-0.5,0-0.7-0.2-0.7-0.6v-0.5
			c0-0.4,0.2-0.7,0.7-0.7c0.5,0,0.7,0.3,0.7,0.7v0.4h-1v0.1C42.7,22.1,42.8,22.3,43.1,22.3z M42.7,21.5h0.8v-0.1
			c0-0.2-0.1-0.4-0.4-0.4c-0.3,0-0.4,0.1-0.4,0.4V21.5z"/>
		<path class="st1" d="M45.5,22.5v-1.3c0-0.1-0.1-0.2-0.2-0.2c-0.1,0-0.4,0.1-0.6,0.2v1.3h-0.3v-1.8h0.2l0,0.2
			c0.2-0.1,0.5-0.2,0.7-0.2c0.3,0,0.4,0.2,0.4,0.4v1.3H45.5z"/>
		<path class="st1" d="M48,20.9l-0.2,0c0.1,0.1,0.1,0.2,0.1,0.3v0.1c0,0.4-0.2,0.6-0.7,0.6c-0.1,0-0.1,0-0.2,0
			c-0.1,0-0.1,0.1-0.1,0.2c0,0.1,0,0.1,0.1,0.1c0.2,0,0.3,0,0.5,0.1c0.3,0,0.4,0.2,0.4,0.4c0,0.4-0.1,0.5-0.8,0.5
			c-0.2,0-0.4,0-0.6-0.1l0-0.2c0.2,0,0.4,0.1,0.6,0.1c0.4,0,0.5-0.1,0.5-0.2c0-0.1-0.1-0.2-0.3-0.2c-0.2,0-0.3,0-0.5,0
			c-0.3,0-0.3-0.2-0.3-0.3c0-0.1,0.1-0.2,0.2-0.3c-0.2-0.1-0.2-0.3-0.2-0.5v-0.1c0-0.4,0.2-0.6,0.7-0.6c0.1,0,0.2,0,0.3,0H48V20.9z
			 M47.2,20.9c-0.3,0-0.4,0.1-0.4,0.4v0.1c0,0.3,0.1,0.3,0.4,0.3s0.4-0.1,0.4-0.3v-0.1C47.6,21,47.5,20.9,47.2,20.9z"/>
		<path class="st1" d="M48.7,20.4V20H49v0.4H48.7z M48.7,22.5v-1.8H49v1.8H48.7z"/>
		<path class="st1" d="M50.9,22.5v-1.3c0-0.1-0.1-0.2-0.2-0.2c-0.1,0-0.4,0.1-0.6,0.2v1.3h-0.3v-1.8h0.2l0,0.2
			c0.2-0.1,0.5-0.2,0.7-0.2c0.3,0,0.4,0.2,0.4,0.4v1.3H50.9z"/>
		<path class="st1" d="M52.7,22.3c0.2,0,0.4,0,0.6-0.1l0,0.2c-0.2,0.1-0.4,0.1-0.6,0.1c-0.5,0-0.7-0.2-0.7-0.6v-0.5
			c0-0.4,0.2-0.7,0.7-0.7c0.5,0,0.7,0.3,0.7,0.7v0.4h-1v0.1C52.3,22.1,52.3,22.3,52.7,22.3z M52.3,21.5H53v-0.1
			c0-0.2-0.1-0.4-0.4-0.4c-0.3,0-0.4,0.1-0.4,0.4V21.5z"/>
		<path class="st1" d="M54.7,22.3c0.2,0,0.4,0,0.6-0.1l0,0.2c-0.2,0.1-0.4,0.1-0.6,0.1c-0.5,0-0.7-0.2-0.7-0.6v-0.5
			c0-0.4,0.2-0.7,0.7-0.7c0.5,0,0.7,0.3,0.7,0.7v0.4h-1v0.1C54.3,22.1,54.3,22.3,54.7,22.3z M54.3,21.5H55v-0.1
			c0-0.2-0.1-0.4-0.4-0.4s-0.4,0.1-0.4,0.4V21.5z"/>
		<path class="st1" d="M56.9,21c-0.2,0.1-0.4,0.2-0.5,0.3v1.2H56v-1.8h0.3l0,0.2c0.1-0.1,0.3-0.2,0.5-0.3L56.9,21z"/>
		<path class="st1" d="M57.9,22.5c-0.2,0-0.4,0-0.6-0.1l0-0.2c0.2,0,0.4,0.1,0.5,0.1c0.3,0,0.3-0.1,0.3-0.2c0-0.2,0-0.2-0.4-0.3
			c-0.4-0.1-0.5-0.2-0.5-0.6c0-0.3,0.1-0.5,0.6-0.5c0.2,0,0.4,0,0.5,0.1l0,0.2c-0.1,0-0.3-0.1-0.5-0.1c-0.3,0-0.3,0.1-0.3,0.2
			c0,0.2,0,0.2,0.3,0.3c0.5,0.1,0.5,0.2,0.5,0.5C58.5,22.3,58.4,22.5,57.9,22.5z"/>
		<path class="st1" d="M60.2,21.5h0.6v-0.6h0.3v0.6h0.6v0.3h-0.6v0.6h-0.3v-0.6h-0.6V21.5z"/>
		<path class="st1" d="M65.6,22.5v-1.3c0-0.1-0.1-0.2-0.2-0.2c-0.1,0-0.4,0.1-0.6,0.2v1.3h-0.3v-1.3c0-0.1-0.1-0.2-0.2-0.2
			c-0.1,0-0.4,0.1-0.6,0.2v1.3h-0.3v-1.8h0.2l0,0.2c0.2-0.1,0.5-0.2,0.7-0.2c0.2,0,0.3,0.1,0.3,0.2c0.2-0.1,0.5-0.2,0.7-0.2
			c0.3,0,0.4,0.2,0.4,0.4v1.3H65.6z"/>
		<path class="st1" d="M68,22.5h-0.3l0-0.1c-0.2,0.1-0.4,0.2-0.6,0.2c-0.3,0-0.5-0.2-0.5-0.5c0-0.4,0.2-0.5,0.5-0.5h0.5v-0.3
			c0-0.2-0.1-0.3-0.4-0.3c-0.2,0-0.4,0-0.5,0.1l0-0.2c0.2,0,0.4-0.1,0.6-0.1c0.5,0,0.7,0.2,0.7,0.6V22.5z M67.7,21.8h-0.4
			c-0.2,0-0.3,0.1-0.3,0.2c0,0.2,0,0.3,0.2,0.3c0.2,0,0.3-0.1,0.5-0.1V21.8z"/>
		<path class="st1" d="M69.9,22.5v-1.3c0-0.1-0.1-0.2-0.2-0.2c-0.1,0-0.4,0.1-0.6,0.2v1.3h-0.3v-1.8h0.2l0,0.2
			c0.2-0.1,0.5-0.2,0.7-0.2c0.3,0,0.4,0.2,0.4,0.4v1.3H69.9z"/>
		<path class="st1" d="M72.3,22.5H72l0-0.1c-0.2,0.1-0.4,0.2-0.6,0.2c-0.3,0-0.5-0.2-0.5-0.5c0-0.4,0.2-0.5,0.5-0.5h0.5v-0.3
			c0-0.2-0.1-0.3-0.4-0.3c-0.2,0-0.4,0-0.5,0.1l0-0.2c0.2,0,0.4-0.1,0.6-0.1c0.5,0,0.7,0.2,0.7,0.6V22.5z M71.9,21.8h-0.4
			c-0.2,0-0.3,0.1-0.3,0.2c0,0.2,0,0.3,0.2,0.3c0.2,0,0.3-0.1,0.5-0.1V21.8z"/>
		<path class="st1" d="M74.4,20.9l-0.2,0c0.1,0.1,0.1,0.2,0.1,0.3v0.1c0,0.4-0.2,0.6-0.7,0.6c-0.1,0-0.1,0-0.2,0
			c-0.1,0-0.1,0.1-0.1,0.2c0,0.1,0,0.1,0.1,0.1c0.2,0,0.3,0,0.5,0.1c0.3,0,0.4,0.2,0.4,0.4c0,0.4-0.1,0.5-0.8,0.5
			c-0.2,0-0.4,0-0.6-0.1l0-0.2c0.2,0,0.4,0.1,0.6,0.1c0.4,0,0.5-0.1,0.5-0.2c0-0.1-0.1-0.2-0.3-0.2c-0.2,0-0.3,0-0.5,0
			c-0.3,0-0.3-0.2-0.3-0.3c0-0.1,0.1-0.2,0.2-0.3c-0.2-0.1-0.2-0.3-0.2-0.5v-0.1c0-0.4,0.2-0.6,0.7-0.6c0.1,0,0.2,0,0.3,0h0.5V20.9z
			 M73.6,20.9c-0.3,0-0.4,0.1-0.4,0.4v0.1c0,0.3,0.1,0.3,0.4,0.3c0.3,0,0.4-0.1,0.4-0.3v-0.1C74,21,73.9,20.9,73.6,20.9z"/>
		<path class="st1" d="M75.7,22.3c0.2,0,0.4,0,0.6-0.1l0,0.2c-0.2,0.1-0.4,0.1-0.6,0.1c-0.5,0-0.7-0.2-0.7-0.6v-0.5
			c0-0.4,0.2-0.7,0.7-0.7c0.5,0,0.7,0.3,0.7,0.7v0.4h-1v0.1C75.3,22.1,75.4,22.3,75.7,22.3z M75.3,21.5h0.8v-0.1
			c0-0.2-0.1-0.4-0.4-0.4c-0.3,0-0.4,0.1-0.4,0.4V21.5z"/>
		<path class="st1" d="M77.9,21c-0.2,0.1-0.4,0.2-0.5,0.3v1.2h-0.3v-1.8h0.3l0,0.2c0.1-0.1,0.3-0.2,0.5-0.3L77.9,21z"/>
		<path class="st1" d="M79,22.5c-0.2,0-0.4,0-0.6-0.1l0-0.2c0.2,0,0.3,0.1,0.5,0.1c0.3,0,0.3-0.1,0.3-0.2c0-0.2,0-0.2-0.4-0.3
			c-0.4-0.1-0.5-0.2-0.5-0.6c0-0.3,0.1-0.5,0.6-0.5c0.2,0,0.4,0,0.5,0.1l0,0.2c-0.1,0-0.3-0.1-0.5-0.1c-0.3,0-0.3,0.1-0.3,0.2
			c0,0.2,0,0.2,0.3,0.3c0.5,0.1,0.5,0.2,0.5,0.5C79.6,22.3,79.5,22.5,79,22.5z"/>
	</g>
	<polygon class="st2" points="14.9,18.9 16.1,18.9 16.1,4.8 14.9,3.7 	"/>
	<polygon class="st2" points="12.1,18.9 13.3,18.9 13.3,2.3 12.1,1.2 	"/>
	<polygon class="st3" points="0,18.9 10.5,18.9 10.5,0 0,5.8 	"/>
	<polygon class="st2" points="17.7,6.2 17.7,18.9 18.8,18.9 18.8,7.3 	"/>
</g>
</svg>
