<?xml version="1.0" encoding="utf-8"?>
<!-- Generator: Adobe Illustrator 21.1.0, SVG Export Plug-In . SVG Version: 6.00 Build 0)  -->
<svg version="1.1" id="Layer_1" xmlns="http://www.w3.org/2000/svg" xmlns:xlink="http://www.w3.org/1999/xlink" x="0px" y="0px"
	 viewBox="0 0 200 58.1" style="enable-background:new 0 0 200 58.1;" xml:space="preserve">
<style type="text/css">
	.st0{fill:#FFFFFF;}
</style>
<g>
	<path class="st0" d="M53.3,46.7V20h15.2v2.1H55.7v10.3h12v2.1h-12v12.2H53.3z"/>
	<path class="st0" d="M78.6,47.1c-6.9,0-9.4-3.4-9.4-8V27.5c0-4.6,2.5-8,9.4-8s9.4,3.4,9.4,8v11.7C88,43.8,85.5,47.1,78.6,47.1z
		 M85.6,39.1V27.6c0-3.8-1.8-5.9-7-5.9c-5.1,0-7,2.1-7,5.9v11.5c0,3.8,1.9,5.9,7,5.9S85.6,42.9,85.6,39.1z"/>
	<path class="st0" d="M100.6,36.4h-0.5H93v10.3h-2.4V20h9.5c5.4,0,7.4,2.5,7.4,6.2v4.1c0,2.9-1.2,5.1-4.3,5.9l7.2,10.6h-2.7
		L100.6,36.4z M100.1,22.1H93v12.2h7.2c3.4,0,4.9-1.1,4.9-4.1v-4.1C105.1,23.2,103.5,22.1,100.1,22.1z"/>
	<path class="st0" d="M117.1,22.1h-8.2V20h18.9v2.1h-8.2v24.7h-2.4V22.1H117.1z"/>
	<path class="st0" d="M130.9,46.7h-2.4V20h2.4V46.7z"/>
	<path class="st0" d="M141.3,47.1c-2.3,0-5.3-0.4-7.6-1.3l0.4-1.9c2.4,0.7,4.9,1.1,7.2,1.1c4.6,0,5.8-1.4,5.8-4.8c0-4.1,0-4.6-6-6
		c-6.5-1.5-7.2-2.7-7.2-8c0-4.4,1.6-6.7,8.3-6.7c2.3,0,5.1,0.4,6.9,0.9l-0.3,2c-2-0.4-4.5-0.8-6.6-0.8c-5.3,0-6,1.3-6,4.6
		c0,4.3,0.1,4.5,5.8,6c7,1.8,7.4,2.8,7.4,7.8C149.6,44.5,148.1,47.1,141.3,47.1z"/>
	<path class="st0" d="M151.2,46.7V20H168v5.4h-10.8v4.9h10v5.3h-10v5.8H168v5.4L151.2,46.7L151.2,46.7z"/>
	<path class="st0" d="M175.3,31.9l-0.4,14.9H169l1.1-26.8h6l6.4,17.1l6.4-17.1h6l1.1,26.8h-5.8L190,31.9l-4.7,11.4h-5.4L175.3,31.9z
		"/>
	<g>
		<path class="st0" d="M53.3,53.9v-1.4c0-1,0.4-1.6,1.7-1.6c0.4,0,0.8,0.1,1,0.1v0.7c-0.3-0.1-0.6-0.1-0.9-0.1c-0.7,0-1,0.2-1,0.9
			v1.4c0,0.7,0.2,0.9,1,0.9c0.3,0,0.6,0,0.9-0.1l0.1,0.6c-0.2,0.1-0.7,0.1-1,0.1C53.6,55.4,53.3,54.8,53.3,53.9z"/>
		<path class="st0" d="M59.4,55.4c-1.3,0-1.8-0.7-1.8-1.6v-1.3c0-0.9,0.5-1.6,1.8-1.6s1.8,0.7,1.8,1.6v1.3
			C61.1,54.7,60.6,55.4,59.4,55.4z M59.4,51.6c-0.7,0-1,0.3-1,0.9v1.3c0,0.6,0.3,0.9,1,0.9s1-0.3,1-0.9v-1.3
			C60.4,51.9,60.1,51.6,59.4,51.6z"/>
		<path class="st0" d="M65.6,55.3V52c0-0.3-0.1-0.4-0.4-0.4s-1,0.2-1.4,0.4v3.3H63V51h0.6l0.1,0.4c0.5-0.2,1.2-0.5,1.7-0.5
			c0.7,0,0.9,0.4,0.9,1.1v3.3H65.6z"/>
		<path class="st0" d="M69.6,55.4c-0.4,0-1-0.1-1.4-0.2l0.1-0.6c0.4,0.1,0.9,0.2,1.2,0.2c0.7,0,0.8-0.1,0.8-0.6s0-0.5-0.9-0.7
			c-1.1-0.3-1.2-0.5-1.2-1.4c0-0.8,0.4-1.2,1.5-1.2c0.4,0,0.9,0.1,1.2,0.2l-0.1,0.6c-0.4-0.1-0.8-0.1-1.2-0.1
			c-0.6,0-0.7,0.2-0.7,0.5c0,0.5,0,0.6,0.7,0.7c1.2,0.3,1.3,0.5,1.3,1.3C71.1,55,70.8,55.4,69.6,55.4z"/>
		<path class="st0" d="M73.6,51v3.3c0,0.3,0.1,0.4,0.4,0.4s1-0.2,1.4-0.4V51h0.7v4.3h-0.6l0.1-0.3c-0.5,0.2-1.2,0.5-1.7,0.5
			c-0.7,0-0.9-0.4-0.9-1.1V51H73.6z"/>
		<path class="st0" d="M78.3,55.3v-6.1l0.7-0.1v6.2C79,55.3,78.3,55.3,78.3,55.3z"/>
		<path class="st0" d="M83.4,55.3c-0.3,0.1-0.6,0.2-0.9,0.2c-0.7,0-1.1-0.3-1.1-1v-2.8h-0.8V51h0.8v-1l0.7-0.1V51h1.2l-0.1,0.6H82
			v2.7c0,0.3,0,0.5,0.4,0.5c0.2,0,0.4,0,0.7-0.1L83.4,55.3z"/>
		<path class="st0" d="M88.2,55.3h-0.6V55c-0.4,0.3-0.9,0.4-1.4,0.4c-0.8,0-1.1-0.5-1.1-1.2c0-0.9,0.5-1.2,1.3-1.2h1.2v-0.7
			c0-0.5-0.2-0.7-0.9-0.7c-0.4,0-1,0.1-1.3,0.1l-0.1-0.6c0.4-0.1,1-0.2,1.4-0.2c1.2,0,1.6,0.5,1.6,1.4L88.2,55.3L88.2,55.3z
			 M87.4,53.6h-1.1c-0.5,0-0.6,0.1-0.6,0.6c0,0.4,0.1,0.6,0.6,0.6c0.4,0,0.8-0.1,1.1-0.4V53.6z"/>
		<path class="st0" d="M92.7,55.3V52c0-0.3-0.1-0.4-0.4-0.4s-1,0.2-1.4,0.4v3.3h-0.7V51h0.6l0.1,0.4c0.5-0.2,1.2-0.5,1.7-0.5
			c0.7,0,0.9,0.4,0.9,1.1v3.3H92.7z"/>
		<path class="st0" d="M97.8,55.3c-0.3,0.1-0.6,0.2-0.9,0.2c-0.7,0-1.1-0.3-1.1-1v-2.8H95V51h0.8v-1l0.7-0.1V51h1.2l-0.1,0.6h-1.2
			v2.7c0,0.3,0,0.5,0.4,0.5c0.2,0,0.4,0,0.7-0.1L97.8,55.3z"/>
		<path class="st0" d="M106.2,54.8c0.4,0,0.9-0.1,1.4-0.2l0.1,0.6c-0.4,0.2-1,0.2-1.5,0.2c-1.3,0-1.7-0.6-1.7-1.6v-1.3
			c0-0.9,0.4-1.6,1.7-1.6c1.3,0,1.6,0.7,1.6,1.6v0.9h-2.6v0.4C105.1,54.5,105.3,54.8,106.2,54.8z M105.1,52.8h1.9v-0.4
			c0-0.6-0.2-0.9-0.9-0.9c-0.7,0-0.9,0.3-0.9,0.9L105.1,52.8L105.1,52.8z"/>
		<path class="st0" d="M112.1,55.3V52c0-0.3-0.1-0.4-0.4-0.4s-1,0.2-1.4,0.4v3.3h-0.7V51h0.6l0.1,0.4c0.5-0.2,1.2-0.5,1.7-0.5
			c0.7,0,0.9,0.4,0.9,1.1v3.3H112.1z"/>
		<path class="st0" d="M118.3,51.5l-0.5,0.1c0.2,0.2,0.2,0.5,0.2,0.9v0.2c0,0.9-0.6,1.5-1.7,1.5c-0.2,0-0.3,0-0.4,0
			c-0.1,0.1-0.3,0.3-0.3,0.5s0.1,0.2,0.3,0.2c0.4,0,0.7,0.1,1.2,0.1c0.8,0.1,1.1,0.4,1.1,1c0,0.9-0.3,1.3-1.9,1.3
			c-0.4,0-1.1-0.1-1.6-0.2l0.1-0.6c0.4,0.1,1,0.2,1.4,0.2c1.1,0,1.2-0.2,1.2-0.6c0-0.4-0.1-0.4-0.6-0.5c-0.5,0-0.6-0.1-1.1-0.1
			c-0.6-0.1-0.8-0.4-0.8-0.8c0-0.3,0.2-0.6,0.4-0.8c-0.4-0.2-0.6-0.7-0.6-1.2v-0.2c0-0.9,0.5-1.5,1.7-1.5c0.2,0,0.5,0,0.7,0.1h1.2
			L118.3,51.5L118.3,51.5z M116.3,51.5c-0.7,0-1,0.2-1,0.9v0.2c0,0.7,0.3,0.9,1,0.9s1-0.3,1-0.9v-0.2
			C117.3,51.8,117,51.5,116.3,51.5z"/>
		<path class="st0" d="M119.9,50.3v-1.1h0.7v1.1H119.9z M119.9,55.3V51h0.7v4.3H119.9z"/>
		<path class="st0" d="M125.4,55.3V52c0-0.3-0.1-0.4-0.4-0.4s-1,0.2-1.4,0.4v3.3h-0.7V51h0.6l0.1,0.4c0.5-0.2,1.2-0.5,1.7-0.5
			c0.7,0,0.9,0.4,0.9,1.1v3.3H125.4z"/>
		<path class="st0" d="M129.7,54.8c0.4,0,0.9-0.1,1.4-0.2l0.1,0.6c-0.4,0.2-1,0.2-1.5,0.2c-1.3,0-1.7-0.6-1.7-1.6v-1.3
			c0-0.9,0.4-1.6,1.7-1.6s1.6,0.7,1.6,1.6v0.9h-2.6v0.4C128.7,54.5,128.9,54.8,129.7,54.8z M128.7,52.8h1.8v-0.4
			c0-0.6-0.2-0.9-0.9-0.9s-0.9,0.3-0.9,0.9L128.7,52.8L128.7,52.8z"/>
		<path class="st0" d="M134.6,54.8c0.4,0,0.9-0.1,1.4-0.2l0.1,0.6c-0.4,0.2-1,0.2-1.5,0.2c-1.3,0-1.7-0.6-1.7-1.6v-1.3
			c0-0.9,0.4-1.6,1.7-1.6s1.6,0.7,1.6,1.6v0.9h-2.6v0.4C133.6,54.5,133.8,54.8,134.6,54.8z M133.6,52.8h1.9v-0.4
			c0-0.6-0.2-0.9-0.9-0.9s-0.9,0.3-0.9,0.9v0.4H133.6z"/>
		<path class="st0" d="M140,51.6c-0.4,0.2-0.9,0.5-1.2,0.7v3H138V51h0.6v0.6c0.3-0.2,0.8-0.5,1.2-0.7L140,51.6z"/>
		<path class="st0" d="M142.6,55.4c-0.4,0-1-0.1-1.4-0.2l0.1-0.6c0.4,0.1,0.9,0.2,1.2,0.2c0.7,0,0.8-0.1,0.8-0.6s0-0.5-0.9-0.7
			c-1.1-0.3-1.2-0.5-1.2-1.4c0-0.8,0.4-1.2,1.5-1.2c0.4,0,0.9,0.1,1.2,0.2l-0.1,0.6c-0.4-0.1-0.8-0.1-1.2-0.1
			c-0.6,0-0.7,0.2-0.7,0.5c0,0.5,0,0.6,0.7,0.7c1.2,0.3,1.3,0.5,1.3,1.3C144.1,55,143.8,55.4,142.6,55.4z"/>
		<path class="st0" d="M148.3,52.9h1.5v-1.5h0.7v1.5h1.5v0.6h-1.5V55h-0.7v-1.5h-1.5V52.9z"/>
		<path class="st0" d="M161.6,55.3V52c0-0.3-0.1-0.4-0.4-0.4c-0.4,0-1,0.2-1.4,0.4v3.3H159V52c0-0.3-0.1-0.4-0.4-0.4
			c-0.3,0-1,0.2-1.4,0.4v3.3h-0.7V51h0.6l0.1,0.4c0.5-0.2,1.2-0.5,1.7-0.5c0.4,0,0.7,0.2,0.8,0.5c0.5-0.3,1.2-0.5,1.8-0.5
			c0.7,0,0.9,0.4,0.9,1.1v3.3H161.6z"/>
		<path class="st0" d="M167.5,55.3h-0.6V55c-0.4,0.3-0.9,0.4-1.4,0.4c-0.8,0-1.1-0.5-1.1-1.2c0-0.9,0.5-1.2,1.3-1.2h1.2v-0.7
			c0-0.5-0.2-0.7-0.9-0.7c-0.4,0-1,0.1-1.3,0.1l-0.1-0.6c0.4-0.1,1-0.2,1.4-0.2c1.2,0,1.6,0.5,1.6,1.4L167.5,55.3L167.5,55.3z
			 M166.7,53.6h-1.1c-0.5,0-0.6,0.1-0.6,0.6c0,0.4,0.1,0.6,0.6,0.6c0.4,0,0.8-0.1,1.1-0.4V53.6z"/>
		<path class="st0" d="M172.1,55.3V52c0-0.3-0.1-0.4-0.4-0.4c-0.3,0-1,0.2-1.4,0.4v3.3h-0.7V51h0.6l0.1,0.4c0.5-0.2,1.2-0.5,1.7-0.5
			c0.7,0,0.9,0.4,0.9,1.1v3.3H172.1z"/>
		<path class="st0" d="M177.9,55.3h-0.6V55c-0.4,0.3-0.9,0.4-1.4,0.4c-0.8,0-1.1-0.5-1.1-1.2c0-0.9,0.5-1.2,1.3-1.2h1.2v-0.7
			c0-0.5-0.2-0.7-0.9-0.7c-0.4,0-1,0.1-1.3,0.1l-0.1-0.6c0.4-0.1,1-0.2,1.4-0.2c1.2,0,1.6,0.5,1.6,1.4L177.9,55.3L177.9,55.3z
			 M177.2,53.6h-1.1c-0.5,0-0.6,0.1-0.6,0.6c0,0.4,0.1,0.6,0.6,0.6c0.4,0,0.8-0.1,1.1-0.4V53.6z"/>
		<path class="st0" d="M183.2,51.5l-0.5,0.1c0.2,0.2,0.2,0.5,0.2,0.9v0.2c0,0.9-0.6,1.5-1.7,1.5c-0.2,0-0.3,0-0.4,0
			c-0.1,0.1-0.3,0.3-0.3,0.5s0.1,0.2,0.3,0.2c0.5,0,0.7,0.1,1.2,0.1c0.8,0.1,1.1,0.4,1.1,1c0,0.9-0.3,1.3-1.9,1.3
			c-0.4,0-1.1-0.1-1.6-0.2l0.1-0.6c0.5,0.1,1,0.2,1.4,0.2c1.1,0,1.2-0.2,1.2-0.6c0-0.4-0.1-0.4-0.6-0.5c-0.5,0-0.6-0.1-1.1-0.1
			c-0.6-0.1-0.8-0.4-0.8-0.8c0-0.3,0.2-0.6,0.4-0.8c-0.4-0.2-0.6-0.7-0.6-1.2v-0.2c0-0.9,0.5-1.5,1.7-1.5c0.2,0,0.5,0,0.7,0.1h1.2
			L183.2,51.5L183.2,51.5z M181.3,51.5c-0.7,0-1,0.2-1,0.9v0.2c0,0.7,0.3,0.9,1,0.9s1-0.3,1-0.9v-0.2
			C182.2,51.8,182,51.5,181.3,51.5z"/>
		<path class="st0" d="M186.4,54.8c0.4,0,0.9-0.1,1.4-0.2l0.1,0.6c-0.4,0.2-1,0.2-1.5,0.2c-1.3,0-1.7-0.6-1.7-1.6v-1.3
			c0-0.9,0.4-1.6,1.7-1.6s1.6,0.7,1.6,1.6v0.9h-2.6v0.4C185.4,54.5,185.6,54.8,186.4,54.8z M185.4,52.8h1.9v-0.4
			c0-0.6-0.2-0.9-0.9-0.9s-0.9,0.3-0.9,0.9v0.4H185.4z"/>
		<path class="st0" d="M191.8,51.6c-0.4,0.2-0.9,0.5-1.2,0.7v3h-0.7V51h0.6v0.6c0.3-0.2,0.8-0.5,1.2-0.7L191.8,51.6z"/>
		<path class="st0" d="M194.4,55.4c-0.4,0-1-0.1-1.4-0.2l0.1-0.6c0.4,0.1,0.9,0.2,1.2,0.2c0.7,0,0.8-0.1,0.8-0.6s0-0.5-0.9-0.7
			c-1.1-0.3-1.2-0.5-1.2-1.4c0-0.8,0.4-1.2,1.5-1.2c0.4,0,0.9,0.1,1.2,0.2l-0.1,0.6c-0.4-0.1-0.8-0.1-1.2-0.1
			c-0.6,0-0.7,0.2-0.7,0.5c0,0.5,0,0.6,0.7,0.7c1.2,0.3,1.3,0.5,1.3,1.3C195.9,55,195.6,55.4,194.4,55.4z"/>
	</g>
	<polygon class="st0" points="36.7,46.4 39.7,46.4 39.7,11.8 36.7,9.1 	"/>
	<polygon class="st0" points="29.8,46.4 32.8,46.4 32.8,5.7 29.8,3 	"/>
	<polygon class="st0" points="0,46.4 25.9,46.4 25.9,0 0,14.2 	"/>
	<polygon class="st0" points="43.6,15.3 43.6,46.4 46.4,46.4 46.4,18 	"/>
</g>
</svg>
