<?xml version="1.0" encoding="utf-8"?>
<!-- Generator: Adobe Illustrator 21.1.0, SVG Export Plug-In . SVG Version: 6.00 Build 0)  -->
<svg version="1.1" id="Layer_1" xmlns="http://www.w3.org/2000/svg" xmlns:xlink="http://www.w3.org/1999/xlink" x="0px" y="0px"
	 viewBox="0 0 50 50" style="enable-background:new 0 0 50 50;" xml:space="preserve">
<style type="text/css">
	.st0{fill:#FFFFFF;}
	.st1{fill:#3B9BD6;}
</style>
<circle class="st0" cx="25" cy="23.8" r="23.7"/>
<g>
	<path class="st1" d="M25,0C11.2,0,0,11.2,0,25s11.2,25,25,25s25-11.2,25-25S38.8,0,25,0z M37.7,39.3h-2.5v-8.7h-4.6l0,8.7H10.9
		V20.8l6.7,3.5v-3.5l6.7,3.5v-3.5l5.9,3.6L32,9.2l4.5,0l0.7,18.4l0.6,0.3V39.3z"/>
	<rect x="23.5" y="30.5" class="st1" width="6.1" height="4.4"/>
	<rect x="16.6" y="30.5" class="st1" width="6.1" height="4.4"/>
	<rect x="9.6" y="30.5" class="st1" width="6.1" height="4.4"/>
</g>
</svg>
