<?xml version="1.0" encoding="utf-8"?>
<!-- Generator: Adobe Illustrator 21.1.0, SVG Export Plug-In . SVG Version: 6.00 Build 0)  -->
<svg version="1.1" id="Layer_1" xmlns="http://www.w3.org/2000/svg" xmlns:xlink="http://www.w3.org/1999/xlink" x="0px" y="0px"
	 viewBox="0 0 50 52.8" style="enable-background:new 0 0 50 52.8;" xml:space="preserve">
<g>
	<path d="M28.9,25.2l-3.4,2.9c-0.3,0.3-0.8,0.3-1.1,0L21,25.2l-8.9,10.2L12,35.6l0.2,0.1c0.2,0.1,0.4,0.1,0.6,0.1h24.3
		c0.2,0,0.4-0.1,0.6-0.1l0.2-0.1L29,25.3L28.9,25.2z"/>
	<path d="M25,26.4l12.9-11l-0.3-0.1c0,0-0.1,0-0.1,0c-0.1,0-0.2-0.1-0.3-0.1H12.8c-0.1,0-0.2,0-0.3,0.1c0,0-0.1,0-0.1,0l-0.3,0.1
		L25,26.4L25,26.4z"/>
	<path d="M11,16.6l-0.2-0.1l-0.1,0.2c-0.1,0.2-0.1,0.4-0.1,0.6v16.2c0,0.1,0,0.2,0.1,0.3c0,0,0,0.1,0,0.1l0.1,0.3l8.9-10.2L11,16.6z
		"/>
	<path d="M39.1,16.5l-8.9,7.6l8.9,10.2l0.1-0.3c0,0,0-0.1,0-0.1c0-0.1,0.1-0.2,0.1-0.3V17.4c0-0.2-0.1-0.4-0.1-0.6L39.1,16.5z"/>
	<path d="M25,0C11.2,0,0,11.8,0,26.4s11.2,26.4,25,26.4s25-11.8,25-26.4S38.8,0,25,0z M41,33.6c0,2.2-1.8,3.9-3.9,3.9H12.8
		c-2.2,0-3.9-1.8-3.9-3.9V17.4c0-2.2,1.8-3.9,3.9-3.9h24.3c2.2,0,3.9,1.8,3.9,3.9V33.6z"/>
</g>
</svg>
