<?xml version="1.0" encoding="utf-8"?>
<!-- Generator: Adobe Illustrator 21.1.0, SVG Export Plug-In . SVG Version: 6.00 Build 0)  -->
<svg version="1.1" id="Layer_1" xmlns="http://www.w3.org/2000/svg" xmlns:xlink="http://www.w3.org/1999/xlink" x="0px" y="0px"
	 viewBox="0 0 420 420" style="enable-background:new 0 0 420 420;" xml:space="preserve">
<style type="text/css">
	.st0{fill:#3B9AD5;}
</style>
<g>
	<path class="st0" d="M210,0C94,0,0,94,0,210c0,116,94,210,210,210c116,0,210-94,210-210C420,94,326,0,210,0z M316,329.2h-108
		c-0.1,0-0.2,0-0.4,0H98.3c-3.9,0-7-3.1-7-7c0-60.4,38.9-78.6,64.6-90.7c8.9-4.2,16.8-7.9,20.7-12l0.5-2.7
		C155,203,141,175.4,141,144.8c0-44.5,29.7-80.8,66.2-80.8c36.5,0,66.2,36.2,66.2,80.8c0,30.3-13.8,57.8-35.6,71.6l0.7,3.8
		c4.1,3.9,11.5,7.3,19.9,11.3c25.7,12.1,64.6,30.3,64.6,90.7C323,326,319.8,329.2,316,329.2z"/>
	<path class="st0" d="M252.4,244.1c-10.8-5-20-9.4-25.7-16c-0.8-0.9-1.3-2.1-1.6-3.3l-2-10.7c-0.6-3,0.9-6.1,3.6-7.5
		c19.8-10.3,32.6-34.6,32.6-61.9c0-36.8-23.4-66.8-52.2-66.8c-28.8,0-52.2,29.9-52.2,66.8c0,27.5,13,51.9,33.1,62.1
		c2.8,1.4,4.3,4.5,3.7,7.5l-1.8,9.4c-0.2,1-0.6,2-1.3,2.9c-5.5,7.4-15.4,12.1-26.9,17.4c-24,11.3-53.6,25.2-56.3,71h102.4
		c0.1,0,0.2,0,0.4,0h100.5C306.1,269.3,276.4,255.4,252.4,244.1z"/>
</g>
</svg>
