<?xml version="1.0" encoding="utf-8"?>
<!-- Generator: Adobe Illustrator 21.1.0, SVG Export Plug-In . SVG Version: 6.00 Build 0)  -->
<svg version="1.1" id="Layer_1" xmlns="http://www.w3.org/2000/svg" xmlns:xlink="http://www.w3.org/1999/xlink" x="0px" y="0px"
	 viewBox="0 0 50 52.8" style="enable-background:new 0 0 50 52.8;" xml:space="preserve">
<g>
	<path d="M24.7,11.3c-5.3,0-9.6,4.5-9.6,10c0,2.4,1.7,6.7,4.6,11.6c2.1,3.6,4,6,5,7.1c1.1-1.2,3-3.8,5-7.2c2.9-4.9,4.6-9.2,4.6-11.6
		C34.3,15.8,30,11.3,24.7,11.3z M24.7,27c-2.7,0-5-2.2-5-5s2.2-5,5-5c2.7,0,5,2.2,5,5S27.4,27,24.7,27z"/>
	<circle cx="24.7" cy="22" r="3.2"/>
	<path d="M25,0C11.2,0,0,11.8,0,26.4s11.2,26.4,25,26.4c13.8,0,25-11.8,25-26.4S38.8,0,25,0z M31.3,33.9c-2.4,4.1-4.9,7.3-6,8.3
		l-0.6,0.5l-0.6-0.5c-1.1-0.9-3.5-4.1-6-8.3c-3.1-5.3-4.9-9.8-4.9-12.6c0-6.6,5.2-12,11.5-12s11.5,5.4,11.5,12
		C36.2,24.1,34.5,28.5,31.3,33.9z"/>
</g>
</svg>
