<?xml version="1.0" encoding="utf-8"?>
<!-- Generator: Adobe Illustrator 21.1.0, SVG Export Plug-In . SVG Version: 6.00 Build 0)  -->
<svg version="1.1" id="Layer_1" xmlns="http://www.w3.org/2000/svg" xmlns:xlink="http://www.w3.org/1999/xlink" x="0px" y="0px"
	 viewBox="0 0 50 50" style="enable-background:new 0 0 50 50;" xml:space="preserve">
<style type="text/css">
	.st0{fill:#FFFFFF;}
	.st1{fill:#3B9BD6;}
</style>
<circle class="st0" cx="24.9" cy="24.6" r="22.4"/>
<g>
	<circle class="st1" cx="33.7" cy="31.7" r="4.5"/>
	<path class="st1" d="M25,0C11.2,0,0,11.2,0,25s11.2,25,25,25s25-11.2,25-25S38.8,0,25,0z M22.8,29.4l-1.5-2.3
		c-0.7,0.1-1.4,0.1-2.1,0l-1.6,2.3c-0.3,0.4-0.9,0.6-1.3,0.4l-1.4-0.6c-0.5-0.2-0.7-0.7-0.6-1.2l0.6-2.7c-0.5-0.4-1-0.9-1.5-1.5
		l-2.7,0.5c-0.5,0.1-1-0.2-1.2-0.7l-0.5-1.4c-0.2-0.5,0-1,0.4-1.3l2.3-1.5c-0.1-0.7-0.1-1.4,0-2.1l-2.3-1.6C9,15.3,8.8,14.8,9,14.3
		l0.6-1.4c0.2-0.5,0.7-0.7,1.2-0.6l2.7,0.6c0.4-0.5,0.9-1,1.5-1.5l-0.5-2.7c-0.1-0.5,0.2-1,0.7-1.2l1.4-0.5c0.5-0.2,1,0,1.3,0.4
		l1.5,2.3c0.7-0.1,1.4-0.1,2.1,0l1.6-2.3C23.4,7,24,6.8,24.5,7l1.4,0.6c0.5,0.2,0.7,0.7,0.6,1.2l-0.6,2.7c0.5,0.4,1,0.9,1.5,1.5
		l2.7-0.5c0.5-0.1,1,0.2,1.2,0.7l0.5,1.4c0.2,0.5,0,1-0.4,1.3l-2.3,1.5c0.1,0.7,0.1,1.4,0,2.1l2.3,1.6c0.4,0.3,0.6,0.9,0.4,1.3
		l-0.6,1.4c-0.2,0.5-0.7,0.7-1.2,0.6l-2.7-0.6c-0.4,0.5-0.9,1-1.5,1.5l0.5,2.7c0.1,0.5-0.2,1-0.7,1.2l-1.4,0.5
		C23.6,30,23.1,29.9,22.8,29.4z M42.1,33.1l-2,0.4c-0.1,0.5-0.3,1-0.6,1.4l1.2,1.7c0.2,0.3,0.2,0.8-0.1,1l-0.8,0.8
		c-0.3,0.3-0.7,0.3-1,0.1l-1.7-1.2c-0.5,0.3-0.9,0.5-1.4,0.6l-0.4,2c-0.1,0.4-0.4,0.7-0.8,0.7h-1.1c-0.4,0-0.7-0.3-0.8-0.7l-0.4-2
		c-0.5-0.1-1-0.3-1.4-0.6l-1.7,1.2c-0.3,0.2-0.8,0.2-1-0.1l-0.8-0.8c-0.3-0.3-0.3-0.7-0.1-1l1.2-1.7c-0.3-0.5-0.5-0.9-0.6-1.4
		l-2-0.4c-0.4-0.1-0.7-0.4-0.7-0.8v-1.1c0-0.4,0.3-0.7,0.7-0.8l2-0.4c0.1-0.5,0.3-1,0.6-1.4l-1.2-1.7c-0.2-0.3-0.2-0.8,0.1-1
		l0.8-0.8c0.3-0.3,0.7-0.3,1-0.1l1.7,1.2c0.5-0.3,0.9-0.5,1.4-0.6l0.4-2c0.1-0.4,0.4-0.7,0.8-0.7h1.1c0.4,0,0.7,0.3,0.8,0.7l0.4,2
		c0.5,0.1,1,0.3,1.4,0.6l1.7-1.2c0.3-0.2,0.8-0.2,1,0.1l0.8,0.8c0.3,0.3,0.3,0.7,0.1,1l-1.2,1.7c0.3,0.5,0.5,0.9,0.6,1.4l2,0.4
		c0.4,0.1,0.7,0.4,0.7,0.8v1.1C42.7,32.7,42.5,33,42.1,33.1z"/>
	<ellipse transform="matrix(0.9293 -0.3693 0.3693 0.9293 -5.3472 8.8257)" class="st1" cx="20.4" cy="18.4" rx="5.9" ry="5.9"/>
</g>
</svg>
